<svg id="Layer_1" data-name="Layer 1" xmlns="http://www.w3.org/2000/svg" viewBox="0 0 123.7 42.18"><title>logo</title><path d="M48.68,1.94h.64V44.12h-.64Z" transform="translate(-6.32 -1.94)" style="fill:#fff"/><path d="M91.78,26.19V20s0-.05.07-.05c.87,0,1.74,0,2.61,0a1.5,1.5,0,0,1,1,.51,1.4,1.4,0,0,1-.73,2.31l-.28.08a5.62,5.62,0,0,1,.57.13,1.4,1.4,0,0,1,1.14,1.17,1.6,1.6,0,0,1-.72,1.71,2,2,0,0,1-.87.32C93.67,26.22,92.75,26.19,91.78,26.19Zm.81-1.75c0,.38,0,.76,0,1.14,0,.18,0,.28.24.27.42,0,.83,0,1.24-.05a1.25,1.25,0,0,0,1.25-1.17,1.31,1.31,0,0,0-1.06-1.45,9.17,9.17,0,0,0-1.49-.1c-.06,0-.16.14-.17.22C92.58,23.68,92.59,24.06,92.59,24.44Zm0-3c0,.32,0,.65,0,1,0,.08.11.22.17.22a7,7,0,0,0,1.3-.06A1.16,1.16,0,0,0,95,21.36a1.06,1.06,0,0,0-1.07-1c-.37,0-.74,0-1.1,0-.18,0-.24.07-.24.24S92.59,21.16,92.59,21.48Z" transform="translate(-6.32 -1.94)" style="fill:#fff"/><path d="M84.3,22.52,86,24.81c.34-.33.39-.46.65-1.95h.66a4,4,0,0,1-1,2.33l.79,1a2.73,2.73,0,0,1-.82,0,1.86,1.86,0,0,1-.51-.39,9.45,9.45,0,0,1-1.44.5,2.32,2.32,0,0,1-2.09-.55,1.62,1.62,0,0,1,.16-2.54c.3-.23.62-.42,1-.64-.17-.3-.38-.59-.53-.91a1.33,1.33,0,0,1,.36-1.58,1.51,1.51,0,0,1,1.7,0A1.28,1.28,0,0,1,85,22,8,8,0,0,1,84.3,22.52Zm1.2,2.84-1.89-2.48a7.07,7.07,0,0,0-.7.51A1.27,1.27,0,0,0,82.68,25,1.89,1.89,0,0,0,85.5,25.36Zm-1.45-3.15a1.48,1.48,0,0,0,.77-.9,1,1,0,0,0-.36-1,.8.8,0,0,0-.87.13.85.85,0,0,0-.06,1.05A8.57,8.57,0,0,0,84.05,22.21Z" transform="translate(-6.32 -1.94)" style="fill:#fff"/><path d="M121.59,27.66l.47-.42.22.27a1.34,1.34,0,0,0,1.56.55,1.26,1.26,0,0,0,.85-1.24c0-.4,0-.8,0-1.31a1.45,1.45,0,0,1-1.39.82A1.87,1.87,0,0,1,121.39,25a2.91,2.91,0,0,1,.1-2.38,2,2,0,0,1,2.59-.89,3.8,3.8,0,0,1,.6.49l0-.54h.71c0,.1,0,.19,0,.29,0,1.43,0,2.87,0,4.3a3.31,3.31,0,0,1-.1.83c-.3,1.11-1.25,1.41-2.33,1.32A2,2,0,0,1,121.59,27.66ZM124.76,24a10.34,10.34,0,0,0-.24-1.16,1.08,1.08,0,0,0-1-.78,1.19,1.19,0,0,0-1.13.51,2.71,2.71,0,0,0-.09,2.71,1.24,1.24,0,0,0,1.24.58,1.09,1.09,0,0,0,.94-.76A9.76,9.76,0,0,0,124.76,24Z" transform="translate(-6.32 -1.94)" style="fill:#fff"/><path d="M112,19.92v6.26h-.73l0-.51a3.67,3.67,0,0,1-.88.57,1.89,1.89,0,0,1-2.35-1,2.86,2.86,0,0,1,0-2.49,1.9,1.9,0,0,1,3.24-.31V19.92ZM111.3,24h0c0-.26,0-.52-.06-.77a1.36,1.36,0,0,0-1-1.15,1.23,1.23,0,0,0-1.4.74,2.68,2.68,0,0,0,0,2.39,1.17,1.17,0,0,0,1.2.63,1.08,1.08,0,0,0,1-.7A7.13,7.13,0,0,0,111.3,24Z" transform="translate(-6.32 -1.94)" style="fill:#fff"/><path d="M60.67,21.21h-.56a1.69,1.69,0,0,0-2.53-.74.85.85,0,0,0,0,1.49c.46.27,1,.44,1.48.67a7,7,0,0,1,1.19.61A1.61,1.61,0,0,1,60.08,26a3,3,0,0,1-3.18-.15,1.37,1.37,0,0,1-.65-1.15c.47-.12.52-.1.67.31a1.19,1.19,0,0,0,1,.85,5,5,0,0,0,1.39,0,1,1,0,0,0,.88-.84,1,1,0,0,0-.47-1.11c-.49-.27-1-.47-1.54-.72a6.21,6.21,0,0,1-1.06-.54,1.47,1.47,0,0,1,.19-2.51,2.63,2.63,0,0,1,2.8.13A1.35,1.35,0,0,1,60.67,21.21Z" transform="translate(-6.32 -1.94)" style="fill:#fff"/><path d="M56.24,10.94v-.48h5.61v.47H59.48V16.3c0,.45,0,.46-.45.45l-.39,0V10.94Z" transform="translate(-6.32 -1.94)" style="fill:#fff"/><path d="M73.06,23.71c.13-.86-.08-1.49-.52-1.68-.61-.25-1.11,0-1.77.78l-.43-.46a1.67,1.67,0,0,1,1.27-.71,3.9,3.9,0,0,1,1.13.05,1.23,1.23,0,0,1,1.07,1.24c0,1.07,0,2.15,0,3.25h-.68l0-.21a9.92,9.92,0,0,1-1.48.35A1.48,1.48,0,0,1,70.05,25a1.62,1.62,0,0,1,1.3-1.74A2,2,0,0,1,73.06,23.71Zm0,1.06c.11-.63-.62-1.22-1.13-1.2a1.2,1.2,0,0,0-1.14,1.24A1.15,1.15,0,0,0,71.93,26C72.4,26,73.22,25.47,73.1,24.77Z" transform="translate(-6.32 -1.94)" style="fill:#fff"/><path d="M101.17,21.72v4.45h-.77l0-.47a2.17,2.17,0,0,0-.26.2,1.7,1.7,0,0,1-1.85.3,1.14,1.14,0,0,1-.81-1c0-1.14,0-2.29,0-3.46h.71c0,.11,0,.23,0,.35,0,.89,0,1.79,0,2.68a1.06,1.06,0,0,0,1.7.92,1.1,1.1,0,0,0,.51-.94c0-.85,0-1.7,0-2.55,0-.49,0-.49.49-.48Z" transform="translate(-6.32 -1.94)" style="fill:#fff"/><path d="M117,26.18h-.72V21.72H117l0,.47a5.13,5.13,0,0,1,1.05-.52A1.42,1.42,0,0,1,120,23c.06,1.05,0,2.1,0,3.18h-.77v-.54c0-.85,0-1.7,0-2.55a.92.92,0,0,0-.73-1,1.16,1.16,0,0,0-1.34.64,2.13,2.13,0,0,0-.15.75c0,.78,0,1.56,0,2.35Z" transform="translate(-6.32 -1.94)" style="fill:#fff"/><path d="M64.34,21.62A2.36,2.36,0,1,1,62,24,2.29,2.29,0,0,1,64.34,21.62Zm-1.55,2.43a10.7,10.7,0,0,0,.35,1.23,1.16,1.16,0,0,0,1.2.69,1.22,1.22,0,0,0,1.2-.7,3.11,3.11,0,0,0,.07-2.45A1.26,1.26,0,0,0,64.3,22a1.31,1.31,0,0,0-1.3,1C62.91,23.26,62.87,23.61,62.79,24.05Z" transform="translate(-6.32 -1.94)" style="fill:#fff"/><path d="M64.92,15.78l.29.28a2.49,2.49,0,0,1-1.48.77,2.23,2.23,0,0,1-2.49-1.21,2.59,2.59,0,0,1,.46-2.95,2.08,2.08,0,0,1,2.18-.4A1.93,1.93,0,0,1,65.22,14c0,.21,0,.42.07.67H61.86a1.54,1.54,0,0,0,.75,1.57A1.81,1.81,0,0,0,64.92,15.78Zm-.44-1.48c0-.72-.13-1.38-.81-1.73a1.06,1.06,0,0,0-1.2.11,1.86,1.86,0,0,0-.61,1.62Z" transform="translate(-6.32 -1.94)" style="fill:#fff"/><path d="M129.73,22.74h-.42a1.15,1.15,0,0,0-1.46-.71.71.71,0,0,0-.58.62.58.58,0,0,0,.43.65c.46.18.93.31,1.39.49a1.26,1.26,0,0,1,.86,1.64,1.12,1.12,0,0,1-.66.73A2.43,2.43,0,0,1,127,26a1.1,1.1,0,0,1-.55-1H127a1.37,1.37,0,0,0,1.72.91.73.73,0,0,0,.6-.65.62.62,0,0,0-.4-.67c-.4-.18-.83-.31-1.25-.47a1.34,1.34,0,0,1-1-.94,1.21,1.21,0,0,1,.71-1.43,2.09,2.09,0,0,1,1.87.14A.84.84,0,0,1,129.73,22.74Z" transform="translate(-6.32 -1.94)" style="fill:#fff"/><path d="M70,15.9l.24.3a2.66,2.66,0,0,1-3.1.27,2.51,2.51,0,0,1-.86-2.87,2.23,2.23,0,0,1,2.51-1.45,1.48,1.48,0,0,1,1.49,1.06.65.65,0,0,1-.76-.27,1.31,1.31,0,0,0-2.06.09,2.57,2.57,0,0,0-.17,2.63,1.73,1.73,0,0,0,2.26.51C69.72,16.09,69.85,16,70,15.9Z" transform="translate(-6.32 -1.94)" style="fill:#fff"/><path d="M68.76,26.18H68V19.92h.72Z" transform="translate(-6.32 -1.94)" style="fill:#fff"/><path d="M105.63,19.91h.71v6.27h-.71Z" transform="translate(-6.32 -1.94)" style="fill:#fff"/><path d="M59.29,36.24a.43.43,0,0,1-.59-.2,2.14,2.14,0,0,1-.13-.19c-.36-1-1.12-.87-1.94-.76v1.17h-.38V32.39a6.84,6.84,0,0,1,2.21.15,1.11,1.11,0,0,1,.78,1,1.21,1.21,0,0,1-.65,1.31l-.12.06-.06.07Zm-2.65-1.58c.49,0,1,0,1.4,0a.86.86,0,0,0,.79-.78c.05-.53-.12-.91-.61-1a11.42,11.42,0,0,0-1.58-.16Z" transform="translate(-6.32 -1.94)" style="fill:#fff"/><path d="M76.05,26.18h-.74V21.73H76l0,.66c.7-.89,1.29-1,1.85-.4l-.26.47a2.78,2.78,0,0,0-.65-.29.87.87,0,0,0-.88.8,7.61,7.61,0,0,0-.07,1C76,24.67,76.05,25.41,76.05,26.18Z" transform="translate(-6.32 -1.94)" style="fill:#fff"/><path d="M41.77,24.85A1.1,1.1,0,0,1,40.62,26a1.22,1.22,0,0,1-1.15-1.21,1.15,1.15,0,0,1,1.2-1.16A1.13,1.13,0,0,1,41.77,24.85Z" transform="translate(-6.32 -1.94)" style="fill:#fff"/><path d="M39.87,16.68a1.17,1.17,0,1,1-1.18,1.16A1.17,1.17,0,0,1,39.87,16.68Z" transform="translate(-6.32 -1.94)" style="fill:#fff"/><path d="M37.47,11.88a1.16,1.16,0,0,1-2.32.06,1.18,1.18,0,0,1,1.13-1.21A1.17,1.17,0,0,1,37.47,11.88Z" transform="translate(-6.32 -1.94)" style="fill:#fff"/><path d="M17.12,9.18A1.18,1.18,0,0,1,15.94,8a1.17,1.17,0,1,1,2.34,0A1.21,1.21,0,0,1,17.12,9.18Z" transform="translate(-6.32 -1.94)" style="fill:#fff"/><path d="M8.5,31.68A1.2,1.2,0,0,1,9.64,30.5a1.22,1.22,0,0,1,1.19,1.17,1.17,1.17,0,1,1-2.33,0Z" transform="translate(-6.32 -1.94)" style="fill:#fff"/><path d="M17.82,12.12A1.21,1.21,0,0,1,19,10.94a1.17,1.17,0,1,1-1.17,1.18Z" transform="translate(-6.32 -1.94)" style="fill:#fff"/><path d="M39.74,31.44a1.16,1.16,0,1,1-1.11-1.18A1.12,1.12,0,0,1,39.74,31.44Z" transform="translate(-6.32 -1.94)" style="fill:#fff"/><path d="M30.59,9a1.1,1.1,0,0,1-1.08-1.2,1.15,1.15,0,0,1,1.2-1.1A1.15,1.15,0,1,1,30.59,9Z" transform="translate(-6.32 -1.94)" style="fill:#fff"/><path d="M14.67,29.39a1.16,1.16,0,0,1-1.17,1.17,1.12,1.12,0,0,1-1.12-1.17,1.15,1.15,0,1,1,2.29,0Z" transform="translate(-6.32 -1.94)" style="fill:#fff"/><path d="M30.79,24a1.11,1.11,0,0,1,1.15-1.14A1.13,1.13,0,0,1,33.07,24,1.16,1.16,0,0,1,32,25.17,1.21,1.21,0,0,1,30.79,24Z" transform="translate(-6.32 -1.94)" style="fill:#fff"/><path d="M10.4,12.17A1.1,1.1,0,0,1,11.51,11a1.13,1.13,0,0,1,1.18,1.15,1.17,1.17,0,0,1-1.2,1.17A1.1,1.1,0,0,1,10.4,12.17Z" transform="translate(-6.32 -1.94)" style="fill:#fff"/><path d="M20.5,35.16A1.1,1.1,0,0,1,21.66,34a1.15,1.15,0,1,1-.08,2.29A1.06,1.06,0,0,1,20.5,35.16Z" transform="translate(-6.32 -1.94)" style="fill:#fff"/><path d="M21.87,39.57a1.17,1.17,0,0,1-1.21,1.13,1.13,1.13,0,0,1-1.09-1.16,1.15,1.15,0,0,1,2.3,0Z" transform="translate(-6.32 -1.94)" style="fill:#fff"/><path d="M37.32,24.35a1.11,1.11,0,0,1-1.17,1.1,1,1,0,0,1-1.1-1.09,1.16,1.16,0,0,1,1.18-1.19A1.11,1.11,0,0,1,37.32,24.35Z" transform="translate(-6.32 -1.94)" style="fill:#fff"/><path d="M34.48,19.25a1.16,1.16,0,0,1,1.19-1.11,1.18,1.18,0,0,1,1.11,1.23,1.11,1.11,0,0,1-1.18,1.06A1.15,1.15,0,0,1,34.48,19.25Z" transform="translate(-6.32 -1.94)" style="fill:#fff"/><path d="M31.24,34.13A1.13,1.13,0,0,1,30.15,33a1.17,1.17,0,0,1,1.16-1.12A1.13,1.13,0,0,1,32.44,33,1.1,1.1,0,0,1,31.24,34.13Z" transform="translate(-6.32 -1.94)" style="fill:#fff"/><path d="M9.23,18.19a1.15,1.15,0,0,1-2.29.06,1.19,1.19,0,0,1,1.12-1.19A1.16,1.16,0,0,1,9.23,18.19Z" transform="translate(-6.32 -1.94)" style="fill:#fff"/><path d="M12.34,18.38a1.14,1.14,0,0,1,1.15,1.14,1.16,1.16,0,0,1-1.14,1.16,1.15,1.15,0,0,1,0-2.3Z" transform="translate(-6.32 -1.94)" style="fill:#fff"/><path d="M7.45,24A1.13,1.13,0,0,1,8.62,25.1a1.15,1.15,0,1,1-2.3,0A1.13,1.13,0,0,1,7.45,24Z" transform="translate(-6.32 -1.94)" style="fill:#fff"/><path d="M11.89,25.73a1.14,1.14,0,0,1-1.13-1.16,1.15,1.15,0,0,1,2.29,0A1.14,1.14,0,0,1,11.89,25.73Z" transform="translate(-6.32 -1.94)" style="fill:#fff"/><path d="M28.69,30.67a1.14,1.14,0,0,1,0-2.27,1.14,1.14,0,1,1,0,2.27Z" transform="translate(-6.32 -1.94)" style="fill:#fff"/><path d="M19.36,30.75a1.1,1.1,0,0,1-1.06-1.12,1.14,1.14,0,1,1,2.28,0A1.1,1.1,0,0,1,19.36,30.75Z" transform="translate(-6.32 -1.94)" style="fill:#fff"/><path d="M22.73,6.48a1.12,1.12,0,0,1,1.13-1.12A1.17,1.17,0,0,1,25,6.53a1.16,1.16,0,0,1-1.16,1.11A1.08,1.08,0,0,1,22.73,6.48Z" transform="translate(-6.32 -1.94)" style="fill:#fff"/><path d="M16.94,34.26a1.12,1.12,0,1,1,0-2.23,1.12,1.12,0,1,1,0,2.23Z" transform="translate(-6.32 -1.94)" style="fill:#fff"/><path d="M35.06,36.67a1.1,1.1,0,0,1-1.15,1.1,1.14,1.14,0,1,1,0-2.28A1.16,1.16,0,0,1,35.06,36.67Z" transform="translate(-6.32 -1.94)" style="fill:#fff"/><path d="M27.78,35.15a1.07,1.07,0,0,1-1,1.13,1.1,1.1,0,0,1-1.2-1.15,1.12,1.12,0,1,1,2.23,0Z" transform="translate(-6.32 -1.94)" style="fill:#fff"/><path d="M14.33,37.9a1.12,1.12,0,0,1-1.15-1.16,1.14,1.14,0,0,1,1.18-1.08,1.11,1.11,0,0,1,1.1,1.15A1.08,1.08,0,0,1,14.33,37.9Z" transform="translate(-6.32 -1.94)" style="fill:#fff"/><path d="M25.1,15.33A1.11,1.11,0,0,1,24,16.45a1.14,1.14,0,1,1,0-2.27A1.15,1.15,0,0,1,25.1,15.33Z" transform="translate(-6.32 -1.94)" style="fill:#fff"/><path d="M22.78,11a1.13,1.13,0,1,1,1.1,1.15A1.12,1.12,0,0,1,22.78,11Z" transform="translate(-6.32 -1.94)" style="fill:#fff"/><path d="M25.75,32.05a1.08,1.08,0,0,1-1.13-1.11,1.14,1.14,0,0,1,2.27,0A1.11,1.11,0,0,1,25.75,32.05Z" transform="translate(-6.32 -1.94)" style="fill:#fff"/><path d="M35.77,29.27a1.16,1.16,0,0,1-1.19,1.08,1.12,1.12,0,0,1-1.09-1.16,1.14,1.14,0,1,1,2.28.08Z" transform="translate(-6.32 -1.94)" style="fill:#fff"/><path d="M27.63,38.41a1.08,1.08,0,0,1,1.14,1.1,1.1,1.1,0,0,1-1.07,1.14,1.16,1.16,0,0,1-1.2-1.1A1.1,1.1,0,0,1,27.63,38.41Z" transform="translate(-6.32 -1.94)" style="fill:#fff"/><path d="M20.73,17.13a1.14,1.14,0,1,1,0-2.27A1.16,1.16,0,0,1,21.86,16,1.13,1.13,0,0,1,20.73,17.13Z" transform="translate(-6.32 -1.94)" style="fill:#fff"/><path d="M17.63,20.84a1.12,1.12,0,1,1-2.23,0,1.08,1.08,0,0,1,1.14-1.09A1,1,0,0,1,17.63,20.84Z" transform="translate(-6.32 -1.94)" style="fill:#fff"/><path d="M30.89,28.22a1,1,0,0,1-1.07-1.07A1.18,1.18,0,0,1,31,26a1.05,1.05,0,0,1,1.07,1.11A1.11,1.11,0,0,1,30.89,28.22Z" transform="translate(-6.32 -1.94)" style="fill:#fff"/><path d="M33,16.06a1.13,1.13,0,0,1-1.14-1.12,1.15,1.15,0,0,1,1.19-1.11A1.11,1.11,0,0,1,34.16,15,1.07,1.07,0,0,1,33,16.06Z" transform="translate(-6.32 -1.94)" style="fill:#fff"/><path d="M28.32,15.92a1.15,1.15,0,0,1-1.1,1.17A1.13,1.13,0,0,1,26.08,16a1.12,1.12,0,1,1,2.24-.05Z" transform="translate(-6.32 -1.94)" style="fill:#fff"/><path d="M28.86,13.09A1,1,0,0,1,27.77,12a1.1,1.1,0,0,1,1.14-1.11A1.13,1.13,0,0,1,30,12,1.1,1.1,0,0,1,28.86,13.09Z" transform="translate(-6.32 -1.94)" style="fill:#fff"/><path d="M17.18,26.13a1.16,1.16,0,0,1,1.15,1.11,1.2,1.2,0,0,1-1.18,1.17,1.25,1.25,0,0,1-1.08-1.13A1.14,1.14,0,0,1,17.18,26.13Z" transform="translate(-6.32 -1.94)" style="fill:#fff"/><path d="M14.87,14A1.11,1.11,0,0,1,16,15.16a1.15,1.15,0,0,1-1.16,1.13,1.17,1.17,0,0,1-1.1-1.14A1.13,1.13,0,0,1,14.87,14Z" transform="translate(-6.32 -1.94)" style="fill:#fff"/><path d="M22.43,32.11A1.12,1.12,0,1,1,23.6,31,1.17,1.17,0,0,1,22.43,32.11Z" transform="translate(-6.32 -1.94)" style="fill:#fff"/><path d="M16.16,25.26A1.19,1.19,0,0,1,15,24.13,1.14,1.14,0,0,1,16.11,23a1.12,1.12,0,0,1,1.14,1.15A1.08,1.08,0,0,1,16.16,25.26Z" transform="translate(-6.32 -1.94)" style="fill:#fff"/><path d="M18.11,16.84A1.08,1.08,0,0,1,19.23,18,1.14,1.14,0,0,1,18,19.07a1.1,1.1,0,0,1-1-1.15A1.06,1.06,0,0,1,18.11,16.84Z" transform="translate(-6.32 -1.94)" style="fill:#fff"/><path d="M31,17.86A1.11,1.11,0,0,1,29.91,19a1.13,1.13,0,1,1,0-2.26A1.12,1.12,0,0,1,31,17.86Z" transform="translate(-6.32 -1.94)" style="fill:#fff"/><path d="M32.62,20.65a1.12,1.12,0,0,1-2.23,0,1.08,1.08,0,0,1,1.07-1.1A1.1,1.1,0,0,1,32.62,20.65Z" transform="translate(-6.32 -1.94)" style="fill:#fff"/><path d="M79.09,32.18h.36v1.54a4.45,4.45,0,0,1,.8-.34,1.12,1.12,0,0,1,1.5,1.17v1.7l-.4,0V34.63c0-.6-.29-.91-.83-.92a.93.93,0,0,0-1,.92c0,.27,0,.54,0,.81v.82l-.38,0Z" transform="translate(-6.32 -1.94)" style="fill:#fff"/><path d="M103.65,26.19H103V21.72h.7Z" transform="translate(-6.32 -1.94)" style="fill:#fff"/><path d="M113.76,21.72h.71v4.46h-.71Z" transform="translate(-6.32 -1.94)" style="fill:#fff"/><path d="M72.27,36.26H72l0-.36a1.44,1.44,0,0,1-1.19.38.87.87,0,0,1-.86-.82c0-.46.31-.77.85-.8l1.16-.07c0-.33,0-.62-.28-.78a1.37,1.37,0,0,0-1.46.19L70,33.77a1.63,1.63,0,0,1,2-.21,1,1,0,0,1,.35.61C72.3,34.86,72.27,35.55,72.27,36.26Zm-.41-1.32a9,9,0,0,0-1.16,0,.7.7,0,0,0-.42.39.41.41,0,0,0,.27.54,1,1,0,0,0,1-.1A.72.72,0,0,0,71.86,34.94Z" transform="translate(-6.32 -1.94)" style="fill:#fff"/><path d="M62.83,34.94H60.44a.9.9,0,0,0,.51.85,1.24,1.24,0,0,0,1.49-.21l.21.24a1.61,1.61,0,0,1-2,.24,1.51,1.51,0,0,1-.54-1.85,1.37,1.37,0,0,1,1.69-.83A1.43,1.43,0,0,1,62.83,34.94Zm-.4-.3a1,1,0,0,0-1-1,.94.94,0,0,0-1,1Z" transform="translate(-6.32 -1.94)" style="fill:#fff"/><path d="M68.81,35.58l.2.22a1.51,1.51,0,0,1-2.51-1.6,1.41,1.41,0,0,1,1.7-.82,1.38,1.38,0,0,1,1,1.55H66.81a.92.92,0,0,0,.53.87A1.23,1.23,0,0,0,68.81,35.58Zm-2-.95h2a1,1,0,0,0-1-1A1,1,0,0,0,66.81,34.63Z" transform="translate(-6.32 -1.94)" style="fill:#fff"/><path d="M63.41,36a1.13,1.13,0,0,1,.06-.14l.06-.09c.43.08.81.16,1.2.21a.54.54,0,0,0,.38-.08.6.6,0,0,0,.26-.38.43.43,0,0,0-.26-.33,8.07,8.07,0,0,0-.88-.21c-.49-.12-.71-.36-.71-.76a.78.78,0,0,1,.62-.77,2,2,0,0,1,1.54.2l-.15.3,0-.1c-.39,0-.78-.08-1.17-.08a.4.4,0,0,0-.42.43c0,.27.2.36.41.42s.58.13.88.2a.72.72,0,0,1,.07,1.39A2,2,0,0,1,63.41,36Z" transform="translate(-6.32 -1.94)" style="fill:#fff"/><path d="M78.17,33.92l-.27.17A1.1,1.1,0,0,0,76.23,34a1.23,1.23,0,0,0,0,1.6,1.13,1.13,0,0,0,1.65-.09l.25.18a1.32,1.32,0,0,1-1.51.54A1.39,1.39,0,0,1,75.56,35a1.44,1.44,0,0,1,1-1.56A1.41,1.41,0,0,1,78.17,33.92Z" transform="translate(-6.32 -1.94)" style="fill:#fff"/><path d="M75,33.23v.45c-.8.14-1,.4-1,1.23v1.35l-.35,0V33.39h.31l0,.35Z" transform="translate(-6.32 -1.94)" style="fill:#fff"/><path d="M103.31,19.81a.5.5,0,0,1,.49.49.5.5,0,0,1-.51.46.5.5,0,0,1-.48-.47A.49.49,0,0,1,103.31,19.81Z" transform="translate(-6.32 -1.94)" style="fill:#fff"/><path d="M114.09,19.81a.48.48,0,1,1,0,1,.48.48,0,1,1,0-1Z" transform="translate(-6.32 -1.94)" style="fill:#fff"/></svg>