<svg id="Layer_1" data-name="Layer 1" xmlns="http://www.w3.org/2000/svg" viewBox="0 0 373.41 127.47"><title>original</title><path d="M146.27,68v61.77c0,.41,0,.81,0,1.22,0,.68-.49.71-1,.71s-1,0-1-.7c0-.31,0-.61,0-.92q0-62.12,0-124.25c0-.56-.37-1.37.64-1.55s1.37.07,1.37,1.34V68Z" transform="translate(-16.41 -4.22)" style="fill:#261249"/><path d="M282.69,67.56a5.76,5.76,0,0,1,1.78.36,4.16,4.16,0,0,1,3.21,3.53,4.87,4.87,0,0,1-2.06,5,5.74,5.74,0,0,1-3.22,1.09c-2.34,0-4.67,0-7,0-.73,0-1-.24-1-1q0-8.48,0-16.94c0-.67.26-1,1-1,2.23,0,4.46-.06,6.69,0a4.59,4.59,0,0,1,4.37,2.93,4.2,4.2,0,0,1-3.49,5.61C282.76,67.28,282.52,67.31,282.69,67.56Z" transform="translate(-16.41 -4.22)" style="fill:#261249"/><path d="M258.55,77.53a1.59,1.59,0,0,1-1.71-.73c-.42-.73-.93-.64-1.6-.23a8.09,8.09,0,0,1-8,.57c-3.76-1.71-4.26-6-1.08-8.66a11.91,11.91,0,0,1,2.3-1.49c.53-.26.57-.58.27-1a17.79,17.79,0,0,1-1.3-2.17,4.08,4.08,0,0,1,1-4.64,4.53,4.53,0,0,1,5-.31A3.82,3.82,0,0,1,255,63a4.57,4.57,0,0,1-2.41,2.87c-.72.4-.8.73-.29,1.39q2.13,2.7,4.17,5.49c.51.69.83.63,1.23-.08a10.06,10.06,0,0,0,1.16-4.27c.07-1,.7-1,1.4-.94s.69.7.57,1.22a12.22,12.22,0,0,1-2.41,5.09,1,1,0,0,0,0,1.58c.38.42.73.89,1.07,1.35.16.2.45.41.3.69s-.48.15-.74.17A4.26,4.26,0,0,1,258.55,77.53Z" transform="translate(-16.41 -4.22)" style="fill:#261249"/><path d="M373.67,75.81c-1.73,2.25-3.94,2.58-6.39,1.73-2.66-.92-3.69-3.11-4-5.71a9.2,9.2,0,0,1,.25-3.42,6.06,6.06,0,0,1,7.66-4.48,4.54,4.54,0,0,1,2.36,1.75c.31-.14.26-.38.24-.56-.09-.88.29-1.18,1.17-1.18s1.08.51,1.08,1.28q0,6.3,0,12.58a10.43,10.43,0,0,1-.28,2.31c-.76,3.35-3.53,4.52-7,4.23A6.17,6.17,0,0,1,365,82.6c-.51-.49-.39-.83.11-1.23s.82-.72,1.29,0A4,4,0,0,0,368.12,83a3.82,3.82,0,0,0,5.46-2.62A16.24,16.24,0,0,0,373.67,75.81Z" transform="translate(-16.41 -4.22)" style="fill:#261249"/><path d="M333,65.91a9.29,9.29,0,0,0,.17-2.67c0-1.22,0-2.44,0-3.65,0-.87.48-1,1.17-1s1.08.18,1.08,1q0,8.52,0,17c0,.81-.43,1-1.1.93s-1.18,0-1.15-.87c0-.29-.05-.59-.09-1.07a6.56,6.56,0,0,1-2.28,2,5.92,5.92,0,0,1-7.75-3.74,8.47,8.47,0,0,1,.26-6.71,6,6,0,0,1,7.53-3A6.16,6.16,0,0,1,333,65.91Z" transform="translate(-16.41 -4.22)" style="fill:#261249"/><path d="M173.75,77.93a7.89,7.89,0,0,1-5.38-2.15,4.09,4.09,0,0,1-1.1-1.91c-.1-.39-.2-.87.38-1s1.1-.22,1.28.45a4,4,0,0,0,2.62,3,8.2,8.2,0,0,0,5.09.06,3,3,0,0,0,2.27-2.47,3.31,3.31,0,0,0-1.23-3.25,11.89,11.89,0,0,0-3.59-1.85,16.3,16.3,0,0,1-4.24-1.9,4.48,4.48,0,0,1,.36-7.73,7.92,7.92,0,0,1,8.46.42,3.79,3.79,0,0,1,1.4,1.7c.16.35.58.87-.07,1.1a1.05,1.05,0,0,1-1.42-.39,5.08,5.08,0,0,0-6.82-2.16,2.89,2.89,0,0,0-1.92,2.41,2.61,2.61,0,0,0,1.47,2.66,15.58,15.58,0,0,0,3.22,1.47,16,16,0,0,1,4.57,2.14,4.89,4.89,0,0,1-.6,8.4A8.85,8.85,0,0,1,173.75,77.93Z" transform="translate(-16.41 -4.22)" style="fill:#261249"/><path d="M302.74,70.72c0,1.93,0,3.86,0,5.78,0,.63-.15,1.09-.89,1s-1.44.3-1.51-.82-.49-.39-.78-.13a5.11,5.11,0,0,1-5.67.92,3.91,3.91,0,0,1-2.48-3.85c-.07-2.9,0-5.81-.05-8.71,0-.88.49-1,1.18-1s1.1.23,1.09,1c0,2.26,0,4.52,0,6.79,0,.47,0,.95,0,1.42.08,2,1.18,3.26,3,3.3a3.35,3.35,0,0,0,3.71-3.31c.08-2.66.07-5.33,0-8,0-.91.3-1.27,1.23-1.26s1.2.34,1.18,1.21C302.71,67,302.74,68.86,302.74,70.72Z" transform="translate(-16.41 -4.22)" style="fill:#261249"/><path d="M220.17,72.21c0,1.45,0,2.91,0,4.36,0,.41,0,.89-.56.91s-1.18.3-1.44-.35-.66-.43-1.07-.2a6.37,6.37,0,0,1-4.77.84,4.48,4.48,0,0,1-3.47-5.1A4.9,4.9,0,0,1,214,68.49a5.71,5.71,0,0,1,3.21,1.09c.18.14.38.37.63.24s.22-.46.21-.73-.07-.67-.11-1c-.14-1.43-.37-2.81-2-3.27a3.81,3.81,0,0,0-4.33,1.66c-.57.84-.92.69-1.5.06s-.31-.85.12-1.25a7.67,7.67,0,0,1,8-.84,4.11,4.11,0,0,1,1.92,3.6c.06,1.39,0,2.77,0,4.16Z" transform="translate(-16.41 -4.22)" style="fill:#261249"/><path d="M348.22,70.78c0-1.89,0-3.78,0-5.68,0-.62,0-1.16.89-1.14.69,0,1.42-.09,1.35,1,0,.18-.06.45.18.52s.41-.18.58-.33a5.37,5.37,0,0,1,5.19-1.22,3.77,3.77,0,0,1,3,3.21,8.71,8.71,0,0,1,.17,1.61c0,2.53,0,5.06,0,7.6,0,.83-.21,1.22-1.13,1.22s-1.14-.42-1.13-1.24c0-2.23,0-4.46,0-6.69a12.18,12.18,0,0,0-.12-1.71c-.22-1.64-1-2.55-2.24-2.75a3.59,3.59,0,0,0-4,1.87,5.43,5.43,0,0,0-.49,2.36c0,2.33,0,4.66,0,7,0,.79-.21,1.16-1.08,1.17s-1.19-.33-1.16-1.2C348.25,74.5,348.22,72.64,348.22,70.78Z" transform="translate(-16.41 -4.22)" style="fill:#261249"/><path d="M198.48,70.79a6.8,6.8,0,0,1-6.94,7.14,7.11,7.11,0,0,1-.07-14.21A6.79,6.79,0,0,1,198.48,70.79Z" transform="translate(-16.41 -4.22)" style="fill:#261249"/><path d="M189.16,42.81c-1.32,0-2.64,0-3.95,0-1.12,0-1.29.22-1.14,1.33a4.78,4.78,0,0,0,6.53,3.79,6.78,6.78,0,0,0,2.21-1.41.58.58,0,0,1,.95,0c.38.4.15.64-.15.92A8.2,8.2,0,0,1,185,48.52,7.39,7.39,0,0,1,181.51,41a6.38,6.38,0,0,1,9.19-5.26,6,6,0,0,1,3.47,5c.25,2.09.21,2.09-1.87,2.09Z" transform="translate(-16.41 -4.22)" style="fill:#261249"/><path d="M174.32,40.08c0-2.5,0-5,0-7.51,0-.81-.27-1.16-1.12-1.14-1.69,0-3.38,0-5.07,0-.52,0-1.08,0-1.08-.74s.6-.69,1.1-.69q7.35,0,14.71,0c.48,0,1.08-.12,1.14.65s-.38.78-.91.78c-1.69,0-3.38,0-5.07,0-1,0-1.29.33-1.28,1.29,0,5,0,9.94,0,14.91,0,1.22-.14,1.3-1.34,1.33-.87,0-1.11-.36-1.1-1.16,0-2.57,0-5.14,0-7.71Z" transform="translate(-16.41 -4.22)" style="fill:#261249"/><path d="M384.75,77.93a6.55,6.55,0,0,1-4.34-1.41,3,3,0,0,1-1-1.29c-.15-.43-.46-1,.14-1.24a1,1,0,0,1,1.42.52,4.11,4.11,0,0,0,5,2.19,2.18,2.18,0,0,0,1.73-1.89,2.1,2.1,0,0,0-1.21-2.16,11,11,0,0,0-2.55-1,9.59,9.59,0,0,1-2.71-1.12,3.62,3.62,0,0,1,.4-6.26,6.07,6.07,0,0,1,6,.42,2.5,2.5,0,0,1,1.06,1.19c.16.38.48.87-.09,1.14s-.93.07-1.24-.49a3.42,3.42,0,0,0-4.16-1.61,2.21,2.21,0,0,0-1.74,2c-.11,1,.59,1.54,1.36,1.93,1.31.66,2.77.88,4.12,1.42,2.41,1,3.41,3.11,2.43,5.29-.79,1.74-2.37,2.18-4.08,2.35C385.16,77.94,385,77.93,384.75,77.93Z" transform="translate(-16.41 -4.22)" style="fill:#261249"/><path d="M204.1,35.11A5.83,5.83,0,0,1,208.92,37c.28.34.75.71.4,1.23-.23.35-1.41.13-1.7-.34-1.82-2.88-6-1.92-7.22.8a8,8,0,0,0-.38,6,5,5,0,0,0,7.2,2.64,9.28,9.28,0,0,0,.95-.58.58.58,0,0,1,.93.22c.26.4,0,.62-.27.82a8.39,8.39,0,0,1-5.18,1.48,6.59,6.59,0,0,1-6.41-5.58c-.63-3.83.93-7,4.07-8.15A7.56,7.56,0,0,1,204.1,35.11Z" transform="translate(-16.41 -4.22)" style="fill:#261249"/><path d="M204.94,68.19c0,2.73,0,5.47,0,8.2,0,.8-.23,1.15-1.09,1.16s-1.19-.3-1.18-1.18c0-5.53,0-11.07,0-16.6,0-.8.23-1.17,1.1-1.17s1.18.31,1.17,1.19C204.92,62.59,204.94,65.39,204.94,68.19Z" transform="translate(-16.41 -4.22)" style="fill:#261249"/><path d="M316.14,68c0-2.74,0-5.48,0-8.22,0-.87.29-1.2,1.17-1.19s1.09.39,1.09,1.18q0,8.31,0,16.64c0,.83-.29,1.13-1.12,1.13s-1.15-.27-1.14-1.12C316.16,73.62,316.14,70.82,316.14,68Z" transform="translate(-16.41 -4.22)" style="fill:#261249"/><path d="M167,102.08c0-1.59,0-3.18,0-4.76,0-.77.28-1.12,1.07-1.1a34.37,34.37,0,0,1,4.65.18,3.82,3.82,0,0,1,3.32,2.86,3.71,3.71,0,0,1-1.75,4.27c-.69.39-.63.7-.22,1.23.6.78,1.15,1.59,1.71,2.4.14.2.46.42.17.68a.68.68,0,0,1-.77,0,1.76,1.76,0,0,1-.52-.46c-.2-.23-.36-.49-.54-.74-1.87-2.69-1.87-2.68-5.07-2.38-.59.06-.86.3-.85.88s0,1.29,0,1.93c0,.38,0,.8-.53.81s-.63-.42-.63-.84c0-1.66,0-3.31,0-5Z" transform="translate(-16.41 -4.22)" style="fill:#261249"/><path d="M227,66.09c.43-.58.68-1,1-1.33a3,3,0,0,1,3.87-.58c.74.44.57.92.23,1.52s-.69.37-1.12.07a2.22,2.22,0,0,0-3.19.6,4.94,4.94,0,0,0-.86,3c0,2.33,0,4.66,0,7,0,.84-.2,1.23-1.13,1.23s-1.15-.37-1.14-1.22c0-3.68,0-7.36,0-11,0-.79.06-1.36,1.11-1.36s1.24.45,1.16,1.3A5.17,5.17,0,0,0,227,66.09Z" transform="translate(-16.41 -4.22)" style="fill:#261249"/><path d="M123.37,73.47a3.29,3.29,0,0,1-3.4,3.45,3.63,3.63,0,0,1-3.46-3.64,3.44,3.44,0,0,1,3.54-3.49A3.4,3.4,0,0,1,123.37,73.47Z" transform="translate(-16.41 -4.22)" style="fill:#4754a3"/><path d="M117.7,48.86a3.48,3.48,0,1,1-3.54,3.37A3.4,3.4,0,0,1,117.7,48.86Z" transform="translate(-16.41 -4.22)" style="fill:#4754a3"/><path d="M107,37.8a3.31,3.31,0,0,1-3.52-3.35,3.48,3.48,0,1,1,7-.08A3.33,3.33,0,0,1,107,37.8Z" transform="translate(-16.41 -4.22)" style="fill:#4754a3"/><path d="M89.77,25.61a3.29,3.29,0,0,1-3.35-3.41A3.43,3.43,0,0,1,90,18.73a3.44,3.44,0,1,1-.21,6.88Z" transform="translate(-16.41 -4.22)" style="fill:#4754a3"/><path d="M30,94.11a3.63,3.63,0,0,1-3.65,3.46A3.51,3.51,0,0,1,23,94a3.46,3.46,0,0,1,3.37-3.46A3.67,3.67,0,0,1,30,94.11Z" transform="translate(-16.41 -4.22)" style="fill:#4754a3"/><path d="M49,26.13a3.51,3.51,0,0,1-3.51-3.54,3.49,3.49,0,0,1,7,0A3.6,3.6,0,0,1,49,26.13Z" transform="translate(-16.41 -4.22)" style="fill:#4754a3"/><path d="M113.85,89.85a3.45,3.45,0,1,1-3.52,3.38A3.37,3.37,0,0,1,113.85,89.85Z" transform="translate(-16.41 -4.22)" style="fill:#4754a3"/><path d="M58.09,34.94a3.59,3.59,0,0,1-3.43,3.56,3.51,3.51,0,1,1,3.43-3.56Z" transform="translate(-16.41 -4.22)" style="fill:#4754a3"/><path d="M93.75,67.39a3.4,3.4,0,0,1,3.37,3.55,3.46,3.46,0,0,1-3.4,3.46,3.66,3.66,0,0,1-3.44-3.57A3.38,3.38,0,0,1,93.75,67.39Z" transform="translate(-16.41 -4.22)" style="fill:#4754a3"/><path d="M28.74,35.16a3.22,3.22,0,0,1,3.33-3.43,3.3,3.3,0,0,1,3.48,3.42A3.4,3.4,0,0,1,32,38.64,3.24,3.24,0,0,1,28.74,35.16Z" transform="translate(-16.41 -4.22)" style="fill:#4754a3"/><path d="M59.87,114.44a3.31,3.31,0,0,1,3.44,3.43,3.43,3.43,0,0,1-3.53,3.4,3.39,3.39,0,0,1-3.39-3.43A3.31,3.31,0,0,1,59.87,114.44Z" transform="translate(-16.41 -4.22)" style="fill:#4754a3"/><path d="M62.46,108a3.15,3.15,0,0,1-3.25-3.44,3.3,3.3,0,0,1,3.48-3.38,3.43,3.43,0,0,1,3.39,3.55A3.38,3.38,0,0,1,62.46,108Z" transform="translate(-16.41 -4.22)" style="fill:#4754a3"/><path d="M41.57,87.2A3.5,3.5,0,0,1,38,90.68a3.44,3.44,0,0,1-3.3-3.43,3.47,3.47,0,0,1,3.44-3.51A3.4,3.4,0,0,1,41.57,87.2Z" transform="translate(-16.41 -4.22)" style="fill:#4754a3"/><path d="M110,71.89a3.39,3.39,0,0,1-3.52,3.37A3.1,3.1,0,0,1,103.16,72a3.45,3.45,0,0,1,3.39-3.54A3.37,3.37,0,0,1,110,71.89Z" transform="translate(-16.41 -4.22)" style="fill:#4754a3"/><path d="M104.76,60.1a3.42,3.42,0,1,1,3.55-3.22A3.32,3.32,0,0,1,104.76,60.1Z" transform="translate(-16.41 -4.22)" style="fill:#4754a3"/><path d="M25.13,53.39a3.43,3.43,0,0,1-6.85.15A3.49,3.49,0,0,1,21.6,50,3.41,3.41,0,0,1,25.13,53.39Z" transform="translate(-16.41 -4.22)" style="fill:#4754a3"/><path d="M81.15,104.52a3.35,3.35,0,1,1-6.7,0,3.25,3.25,0,0,1,3.36-3.38A3.22,3.22,0,0,1,81.15,104.52Z" transform="translate(-16.41 -4.22)" style="fill:#4754a3"/><path d="M23.3,74.21a3.45,3.45,0,1,1-3.55-3.38A3.46,3.46,0,0,1,23.3,74.21Z" transform="translate(-16.41 -4.22)" style="fill:#4754a3"/><path d="M38,57.45a3.47,3.47,0,0,1-3.42,3.42,3.45,3.45,0,0,1,0-6.9A3.35,3.35,0,0,1,38,57.45Z" transform="translate(-16.41 -4.22)" style="fill:#4754a3"/><path d="M33.26,76.1a3.44,3.44,0,0,1-3.45-3.37,3.44,3.44,0,1,1,6.87,0A3.44,3.44,0,0,1,33.26,76.1Z" transform="translate(-16.41 -4.22)" style="fill:#4754a3"/><path d="M55.87,91.22A3.27,3.27,0,0,1,52.56,88a3.43,3.43,0,1,1,6.86-.17C59.48,89.79,58.05,91.17,55.87,91.22Z" transform="translate(-16.41 -4.22)" style="fill:#4754a3"/><path d="M95.18,98.18a3.27,3.27,0,0,1-3.55,3.3,3.31,3.31,0,0,1-3.26-3.41,3.38,3.38,0,0,1,3.54-3.37A3.29,3.29,0,0,1,95.18,98.18Z" transform="translate(-16.41 -4.22)" style="fill:#4754a3"/><path d="M84,91c-1.6.25-3.34-1.51-3.35-3.33a3.47,3.47,0,0,1,3.42-3.43,3.43,3.43,0,0,1,3.44,3.39A3.32,3.32,0,0,1,84,91Z" transform="translate(-16.41 -4.22)" style="fill:#4754a3"/><path d="M48.41,95.17a3.25,3.25,0,0,1,3.42,3.33,3.4,3.4,0,1,1-3.42-3.33Z" transform="translate(-16.41 -4.22)" style="fill:#4754a3"/><path d="M66.1,31.64a3.38,3.38,0,1,1,3.36,3.44A3.38,3.38,0,0,1,66.1,31.64Z" transform="translate(-16.41 -4.22)" style="fill:#4754a3"/><path d="M72.7,18.14a3.41,3.41,0,0,1-3.35,3.36,3.3,3.3,0,0,1-3.42-3.35,3.39,3.39,0,1,1,6.77,0Z" transform="translate(-16.41 -4.22)" style="fill:#4754a3"/><path d="M103.09,109.11a3.25,3.25,0,0,1-3.4,3.34A3.52,3.52,0,0,1,96.26,109a3.47,3.47,0,0,1,3.49-3.37A3.37,3.37,0,0,1,103.09,109.11Z" transform="translate(-16.41 -4.22)" style="fill:#4754a3"/><path d="M40.54,112.84a3.31,3.31,0,0,1-3.41-3.45,3.44,3.44,0,0,1,3.54-3.26,3.32,3.32,0,0,1,3.28,3.4A3.22,3.22,0,0,1,40.54,112.84Z" transform="translate(-16.41 -4.22)" style="fill:#4754a3"/><path d="M75,88.47a3.37,3.37,0,0,1,3.42,3.28,3.41,3.41,0,0,1-3.27,3.44,3.29,3.29,0,0,1-3.55-3.32A3.37,3.37,0,0,1,75,88.47Z" transform="translate(-16.41 -4.22)" style="fill:#4754a3"/><path d="M73,44.8a3.33,3.33,0,0,1-3.49,3.29,3.47,3.47,0,0,1-3.29-3.44A3.39,3.39,0,1,1,73,44.8Z" transform="translate(-16.41 -4.22)" style="fill:#4754a3"/><path d="M50.51,61.33a3.35,3.35,0,1,1-6.7,0A3.24,3.24,0,0,1,47.23,58,3.13,3.13,0,0,1,50.51,61.33Z" transform="translate(-16.41 -4.22)" style="fill:#4754a3"/><path d="M90.6,83.63a3.06,3.06,0,0,1-3.23-3.23,3.5,3.5,0,0,1,3.51-3.46,3.17,3.17,0,0,1,3.26,3.35A3.38,3.38,0,0,1,90.6,83.63Z" transform="translate(-16.41 -4.22)" style="fill:#4754a3"/><path d="M84.12,117.68a3.29,3.29,0,0,1-3.21,3.46,3.54,3.54,0,0,1-3.6-3.26,3.34,3.34,0,0,1,3.23-3.44C82.69,114.42,84.1,115.7,84.12,117.68Z" transform="translate(-16.41 -4.22)" style="fill:#4754a3"/><path d="M59.87,50.15a3.57,3.57,0,0,1-3.44-3.43,3.5,3.5,0,0,1,3.49-3.36,3.4,3.4,0,0,1-.05,6.79Z" transform="translate(-16.41 -4.22)" style="fill:#4754a3"/><path d="M101.74,90a3.3,3.3,0,0,1-3.31-3.37A3.42,3.42,0,1,1,101.74,90Z" transform="translate(-16.41 -4.22)" style="fill:#4754a3"/><path d="M84.36,38a3.16,3.16,0,0,1-3.21-3.38,3.35,3.35,0,1,1,6.7.15A3.24,3.24,0,0,1,84.36,38Z" transform="translate(-16.41 -4.22)" style="fill:#4754a3"/><path d="M97.06,46.89a3.3,3.3,0,0,1-3.42-3.24,3.39,3.39,0,1,1,6.78,0A3.21,3.21,0,0,1,97.06,46.89Z" transform="translate(-16.41 -4.22)" style="fill:#4754a3"/><path d="M82.78,46.53A3.4,3.4,0,0,1,79.42,50a3.39,3.39,0,0,1,0-6.78A3.3,3.3,0,0,1,82.78,46.53Z" transform="translate(-16.41 -4.22)" style="fill:#4754a3"/><path d="M52.58,80.7a3.49,3.49,0,0,1-3.47,3.49,3.76,3.76,0,0,1-3.29-3.39,3.48,3.48,0,0,1,3.39-3.45A3.44,3.44,0,0,1,52.58,80.7Z" transform="translate(-16.41 -4.22)" style="fill:#4754a3"/><path d="M42.18,40.82a3.38,3.38,0,0,1-.06,6.75,3.42,3.42,0,0,1-3.32-3.42A3.36,3.36,0,0,1,42.18,40.82Z" transform="translate(-16.41 -4.22)" style="fill:#4754a3"/><path d="M52,49.31a3.22,3.22,0,0,1,3.33,3.29A3.41,3.41,0,0,1,51.7,56a3.31,3.31,0,0,1-3.07-3.46A3.15,3.15,0,0,1,52,49.31Z" transform="translate(-16.41 -4.22)" style="fill:#4754a3"/><path d="M65.15,88.65A3.36,3.36,0,1,1,61.69,92,3.42,3.42,0,0,1,65.15,88.65Z" transform="translate(-16.41 -4.22)" style="fill:#4754a3"/><path d="M90.74,52.44a3.16,3.16,0,0,1-3.28,3.24,3.28,3.28,0,0,1-3.39-3.38A3.36,3.36,0,0,1,87.54,49,3.31,3.31,0,0,1,90.74,52.44Z" transform="translate(-16.41 -4.22)" style="fill:#4754a3"/><path d="M49.33,71.39A3.22,3.22,0,0,1,46,74.68a3.46,3.46,0,0,1-3.27-3.44,3.31,3.31,0,1,1,6.61.15Z" transform="translate(-16.41 -4.22)" style="fill:#4754a3"/><path d="M95.76,60.82a3.35,3.35,0,0,1-6.7-.13,3.26,3.26,0,0,1,3.29-3.26A3.35,3.35,0,0,1,95.76,60.82Z" transform="translate(-16.41 -4.22)" style="fill:#4754a3"/><path d="M236,101.8c0-1.62,0-3.24,0-4.86,0-.48-.27-1.27.57-1.27s.57.82.61,1.32c.05.8,0,1.62,0,2.43,0,.25-.12.59.17.73s.41-.16.6-.28a4.35,4.35,0,0,1,3.38-.67,3,3,0,0,1,2.53,2.43,28.17,28.17,0,0,1,.17,5.66.53.53,0,0,1-.63.61c-.45,0-.52-.38-.52-.73,0-1.32,0-2.64,0-4,0-2.08-.8-3-2.58-3a2.77,2.77,0,0,0-3.11,3c0,1.25,0,2.5,0,3.75,0,.4,0,.88-.55.9s-.63-.49-.63-.93C236,105.25,236,103.52,236,101.8Z" transform="translate(-16.41 -4.22)" style="fill:#261249"/><path d="M342.94,70.82c0,1.9,0,3.79,0,5.68,0,.83-.36,1-1.11,1s-1.16-.12-1.15-1q0-5.83,0-11.66c0-.91.55-.92,1.21-.94s1.06.22,1.05,1C342.92,66.9,342.94,68.86,342.94,70.82Z" transform="translate(-16.41 -4.22)" style="fill:#261249"/><path d="M310.26,70.83c0,1.89,0,3.78,0,5.67,0,.83-.36,1-1.11,1s-1.14-.16-1.14-1q0-5.76,0-11.54c0-.82.36-1,1.11-1s1.15.16,1.14,1C310.24,66.91,310.26,68.87,310.26,70.83Z" transform="translate(-16.41 -4.22)" style="fill:#261249"/><path d="M183.27,103.91h-2.63c-.94,0-1.06.23-.7,1.11a3.55,3.55,0,0,0,4.47,1.73,5,5,0,0,0,.89-.47c.33-.2.63-.3.88.08s-.08.55-.31.74a4.87,4.87,0,0,1-6-.31,4.7,4.7,0,0,1-.5-6,4.21,4.21,0,0,1,5.63-1,4.3,4.3,0,0,1,2,3.38c.07.58-.24.79-.77.78h-2.95Z" transform="translate(-16.41 -4.22)" style="fill:#261249"/><path d="M202.5,103.91c-.91,0-1.82,0-2.73,0-.72,0-.88.28-.67.94a3.53,3.53,0,0,0,4.82,1.79,5.62,5.62,0,0,0,.69-.43c.25-.17.49-.22.71,0s.14.57-.13.78a4.67,4.67,0,0,1-3.53.92,4.3,4.3,0,0,1-3.78-3.3,4.53,4.53,0,0,1,2.29-5.15,4.24,4.24,0,0,1,5.12,1.19,3.79,3.79,0,0,1,.52.86c.8,1.85.47,2.36-1.48,2.36Z" transform="translate(-16.41 -4.22)" style="fill:#261249"/><path d="M215.49,104.53c0,.88,0,1.76,0,2.64,0,.3,0,.63-.42.71s-.54-.15-.61-.5c-.12-.68-.44-.27-.69-.1a4.42,4.42,0,0,1-3.2.64,2.6,2.6,0,0,1-2.36-2.49,2.48,2.48,0,0,1,2.57-2.33c.91,0,1.82,0,2.73,0,.73,0,.93-.34.82-1a2.31,2.31,0,0,0-2.75-1.92,5.32,5.32,0,0,0-2,.61c-.31.16-.62.38-.85-.09s.06-.56.32-.75a5.63,5.63,0,0,1,5.13-.25,2.84,2.84,0,0,1,1.32,2.39c.05.83,0,1.68,0,2.52Z" transform="translate(-16.41 -4.22)" style="fill:#261249"/><path d="M192.26,108a5.8,5.8,0,0,1-2.75-.58c-.36-.16-.7-.36-.48-.83s.54-.28.86-.14a5.83,5.83,0,0,0,3.26.52c.79-.11,1.51-.41,1.55-1.32s-.65-1.12-1.32-1.3c-.92-.24-1.85-.4-2.76-.68a1.91,1.91,0,0,1-1.51-1.81,2.15,2.15,0,0,1,1.25-2.24,5.36,5.36,0,0,1,4.69.1.45.45,0,0,1,.3.64c-.16.36-.42.37-.75.24a9.17,9.17,0,0,0-1.35-.42,3.28,3.28,0,0,0-2.18.24,1.3,1.3,0,0,0-.84,1.17,1.21,1.21,0,0,0,.87,1.13c1.05.49,2.25.43,3.32.87a1.93,1.93,0,0,1,1.4,1.68,2.09,2.09,0,0,1-1.12,2.2,3.43,3.43,0,0,1-.55.25A4.36,4.36,0,0,1,192.26,108Z" transform="translate(-16.41 -4.22)" style="fill:#261249"/><path d="M229.85,108a4.3,4.3,0,0,1-4.21-2.9,4.55,4.55,0,0,1,1.4-5,4.64,4.64,0,0,1,5.15-.29,3.87,3.87,0,0,1,.55.43c.21.21.49.45.22.78s-.57.24-.88,0a3.29,3.29,0,0,0-5.4,1.64,3.53,3.53,0,0,0,1.28,3.8,3.34,3.34,0,0,0,4-.16c.31-.23.61-.54,1-.15s-.08.72-.33,1A3.64,3.64,0,0,1,229.85,108Z" transform="translate(-16.41 -4.22)" style="fill:#261249"/><path d="M220.51,100.53a3.86,3.86,0,0,1,2.38-1.32c.31,0,.64-.09.69.36s-.15.53-.49.65c-2.14.75-2.63,1.41-2.69,3.65,0,1.08,0,2.16,0,3.24,0,.38,0,.8-.57.76s-.46-.43-.46-.77c0-2.32,0-4.65,0-7,0-.37,0-.81.5-.83s.47.37.51.71C220.38,100.13,220.43,100.25,220.51,100.53Z" transform="translate(-16.41 -4.22)" style="fill:#261249"/><path d="M341.78,58.28a1.34,1.34,0,0,1,1.37,1.41,1.27,1.27,0,0,1-1.36,1.38,1.43,1.43,0,0,1-1.43-1.38A1.45,1.45,0,0,1,341.78,58.28Z" transform="translate(-16.41 -4.22)" style="fill:#261249"/><path d="M309.21,61.07a1.4,1.4,0,0,1-.1-2.79,1.4,1.4,0,1,1,.1,2.79Z" transform="translate(-16.41 -4.22)" style="fill:#261249"/><path d="M282.69,67.56c-.15,0-.4,0-.32-.22s.33-.13.52-.14Z" transform="translate(-16.41 -4.22)" style="fill:#261249"/><path d="M276.8,72.2V69c0-.49.13-.9.71-.92a12.32,12.32,0,0,1,4.9.49A4.13,4.13,0,0,1,285.07,73a3.78,3.78,0,0,1-3.37,3.39,24.78,24.78,0,0,1-4,.16c-.68,0-.87-.36-.87-1C276.8,74.43,276.8,73.31,276.8,72.2Z" transform="translate(-16.41 -4.22)" style="fill:#fff"/><path d="M276.8,63.26c0-.88,0-1.76,0-2.64,0-.62.27-.94.91-.93a19.31,19.31,0,0,1,3.64.17A3.08,3.08,0,0,1,284,62.2a3.44,3.44,0,0,1-1.07,3.69c-1.67,1.4-3.68,1.1-5.63,1-.47,0-.48-.51-.49-.88C276.79,65.09,276.8,64.17,276.8,63.26Z" transform="translate(-16.41 -4.22)" style="fill:#fff"/><path d="M251.93,76.51c-3.41,0-5.68-2.11-5.6-4.82a4.93,4.93,0,0,1,3.09-3.93c.43-.12.63.12.83.39,1.6,2.1,3.18,4.2,4.79,6.29.44.55.28.88-.27,1.19A6.75,6.75,0,0,1,251.93,76.51Z" transform="translate(-16.41 -4.22)" style="fill:#fff"/><path d="M253.44,62a4,4,0,0,1-1.81,3.21c-.31.24-.61.29-.88-.06a9.48,9.48,0,0,1-1.53-2.38,2.51,2.51,0,0,1,.51-2.8,2.11,2.11,0,0,1,2.37-.38A2.38,2.38,0,0,1,253.44,62Z" transform="translate(-16.41 -4.22)" style="fill:#fff"/><path d="M373.76,70.79a7.33,7.33,0,0,1-.41,3.25,3.54,3.54,0,0,1-3,2.44,3.5,3.5,0,0,1-3.76-1.82,7.76,7.76,0,0,1,.12-7.91A3.57,3.57,0,0,1,370.27,65a3.5,3.5,0,0,1,3,2.4A7.06,7.06,0,0,1,373.76,70.79Z" transform="translate(-16.41 -4.22)" style="fill:#fff"/><path d="M333.16,71a6.28,6.28,0,0,1-.61,3.48,3.74,3.74,0,0,1-6.59.21,8.1,8.1,0,0,1-.13-7.42A3.62,3.62,0,0,1,330,65.15a4,4,0,0,1,3,3.21A9.47,9.47,0,0,1,333.16,71Z" transform="translate(-16.41 -4.22)" style="fill:#fff"/><path d="M218.09,73.27c.21,1.86-2,3.61-3.66,3.6a3.5,3.5,0,0,1-3.35-3.51,3.66,3.66,0,0,1,3.48-3.75A3.61,3.61,0,0,1,218.09,73.27Z" transform="translate(-16.41 -4.22)" style="fill:#fff"/><path d="M187.06,70.8a7.69,7.69,0,0,1,.72-3.84,3.86,3.86,0,0,1,3.82-2.19A3.73,3.73,0,0,1,195.26,67a9.29,9.29,0,0,1-.07,7.67,3.67,3.67,0,0,1-3.62,2.15,3.85,3.85,0,0,1-3.71-2A7.48,7.48,0,0,1,187.06,70.8Z" transform="translate(-16.41 -4.22)" style="fill:#fff"/><path d="M188,41.77h-3c-.37,0-.72,0-.86-.51-.52-1.89,1.34-4.84,3.26-5.16A3.44,3.44,0,0,1,191,37.76a5.46,5.46,0,0,1,.46.9c1,2.61.71,3.11-2,3.11Z" transform="translate(-16.41 -4.22)" style="fill:#fff"/><path d="M168.21,100.21c0-.68,0-1.35,0-2s.3-1,1-1a18.72,18.72,0,0,1,3.43.22,2.61,2.61,0,0,1,2.3,2.86A2.54,2.54,0,0,1,172.6,103a34.15,34.15,0,0,1-3.65.09c-.5,0-.73-.3-.73-.78v-2.13Z" transform="translate(-16.41 -4.22)" style="fill:#fff"/><path d="M182.75,103.08h-2.12c-.73,0-1-.3-.74-1a3.09,3.09,0,0,1,3-2,3.18,3.18,0,0,1,2.86,2.19c.14.53,0,.79-.56.8-.81,0-1.62,0-2.43,0Z" transform="translate(-16.41 -4.22)" style="fill:#fff"/><path d="M202,103.08c-.74,0-1.49,0-2.23,0s-.84-.35-.65-1a3.15,3.15,0,0,1,3.06-2.06,3.24,3.24,0,0,1,2.84,2.24c.14.56-.09.76-.59.77Z" transform="translate(-16.41 -4.22)" style="fill:#fff"/><path d="M212.31,103.89h.91c1.17,0,1.52.59,1,1.68a3.05,3.05,0,0,1-4.09,1.17,1.49,1.49,0,0,1-.72-1.55,1.34,1.34,0,0,1,1.18-1.2,13.91,13.91,0,0,1,1.71-.13Z" transform="translate(-16.41 -4.22)" style="fill:#fff"/></svg>